<svg width="346.50499267578124px" height="140.9600036621094px" xmlns="http://www.w3.org/2000/svg" viewBox="76.74750366210938 4.519998168945307 346.50499267578124 140.9600036621094" style="background: rgb(11, 48, 117);" preserveAspectRatio="xMidYMid"><defs><filter id="editing-hole" x="-100%" y="-100%" width="300%" height="300%"><feFlood flood-color="#fefefe" result="black"></feFlood><feMorphology operator="dilate" radius="2" in="SourceGraphic" result="erode"></feMorphology><feGaussianBlur in="erode" stdDeviation="4" result="blur"></feGaussianBlur><feOffset in="blur" dx="2" dy="2" result="offset"></feOffset><feComposite operator="atop" in="offset" in2="black" result="merge"></feComposite><feComposite operator="in" in="merge" in2="SourceGraphic" result="inner-shadow"></feComposite></filter></defs><g filter="url(#editing-hole)"><g transform="translate(132.04501402378082, 101.29500198364258)"><path d="M50.62-31.54L50.62-31.54L50.62-31.54Q50.62 0.84 15.50 0.84L15.50 0.84L15.50 0.84Q9.88 0.84 0.61-0.53L0.61-0.53L9.12-45.45L9.12-45.45Q9.73-48.49 10.11-50.24L10.11-50.24L10.11-50.24Q21.66-51.07 26.79-51.07L26.79-51.07L26.79-51.07Q31.92-51.07 36.63-50.01L36.63-50.01L36.63-50.01Q41.34-48.94 44.46-46.59L44.46-46.59L44.46-46.59Q50.62-41.95 50.62-31.54ZM34.96-34.35L34.96-34.35L34.96-34.35Q34.96-45.68 26.83-45.68L26.83-45.68L26.07-45.68L26.07-45.68Q25.69-45.68 25.31-45.60L25.31-45.60L17.48-4.79L17.48-4.79Q17.78-4.64 18.09-4.64L18.09-4.64L18.70-4.64L18.70-4.64Q21.51-4.64 24.43-6.38L24.43-6.38L24.43-6.38Q27.36-8.13 29.64-11.70L29.64-11.70L29.64-11.70Q34.96-19.99 34.96-34.35ZM78.89-3.19L78.89-3.19L78.89-3.19Q75.24 1.52 66.20 1.52L66.20 1.52L66.20 1.52Q61.48 1.52 58.06-1.33L58.06-1.33L58.06-1.33Q54.64-4.18 54.64-8.28L54.64-8.28L54.64-8.28Q54.64-10.56 54.87-11.70L54.87-11.70L59.96-38.76L75.39-40.28L69.84-10.94L69.84-10.94Q69.54-9.27 69.54-8.28L69.54-8.28L69.54-8.28Q69.54-3.88 72.20-3.88L72.20-3.88L72.20-3.88Q75.16-3.88 77.29-7.90L77.29-7.90L77.29-7.90Q77.98-9.20 78.28-10.87L78.28-10.87L83.68-38.76L98.65-40.28L93.02-10.64L93.02-10.64Q92.80-9.50 92.80-8.28L92.80-8.28L92.80-8.28Q92.80-7.07 93.48-5.74L93.48-5.74L93.48-5.74Q94.16-4.41 96.37-4.10L96.37-4.10L96.37-4.10Q95.91-2.28 94.32-1.06L94.32-1.06L94.32-1.06Q90.97 1.52 87.36 1.52L87.36 1.52L87.36 1.52Q83.75 1.52 81.62 0.23L81.62 0.23L81.62 0.23Q79.50-1.06 78.89-3.19ZM130.34-37.47L130.34-37.47L130.34-37.47Q132.85-40.28 137.18-40.28L137.18-40.28L137.18-40.28Q139.84-40.28 141.89-38.84L141.89-38.84L141.89-38.84Q143.94-37.39 143.94-34.69L143.94-34.69L143.94-34.69Q143.94-32.00 143.11-29.11L143.11-29.11L143.11-29.11Q142.27-26.22 140.98-23.26L140.98-23.26L140.98-23.26Q138.40-17.48 134.82-12.69L134.82-12.69L134.82-12.69Q129.81-5.78 124.98-2.13L124.98-2.13L124.98-2.13Q120.16 1.52 114.91 1.52L114.91 1.52L114.91 1.52Q110.66 1.52 108.07 0.53L108.07 0.53L108.07 0.53Q107.62-15.43 107.05-21.13L107.05-21.13L107.05-21.13Q106.48-26.83 106.02-29.94L106.02-29.94L106.02-29.94Q105.26-36.02 102.98-37.47L102.98-37.47L102.98-37.47Q104.73-38.99 106.44-39.63L106.44-39.63L106.44-39.63Q108.15-40.28 111.68-40.28L111.68-40.28L111.68-40.28Q115.22-40.28 117.72-37.51L117.72-37.51L117.72-37.51Q120.23-34.73 120.73-29.83L120.73-29.83L120.73-29.83Q121.22-24.93 121.22-19L121.22-19L121.22-19Q121.22-13.07 120.76-5.93L120.76-5.93L120.76-5.93Q123.12-7.60 125.63-12.69L125.63-12.69L125.63-12.69Q129.05-19.76 130.26-28.27L130.26-28.27L130.26-28.27Q130.64-30.86 130.64-33.59L130.64-33.59L130.64-33.59Q130.64-36.33 130.34-37.47ZM149.30-2.28L149.30-2.28L149.30-2.28Q147.52-4.26 146.72-7.37L146.72-7.37L146.72-7.37Q145.92-10.49 145.92-15.58L145.92-15.58L145.92-15.58Q145.92-20.67 147.67-25.31L147.67-25.31L147.67-25.31Q149.42-29.94 152.61-33.29L152.61-33.29L152.61-33.29Q159.14-40.28 169.94-40.28L169.94-40.28L169.94-40.28Q173.81-40.28 176.62-38.99L176.62-38.99L189.62-40.28L184.00-10.64L184.00-10.64Q183.77-9.73 183.77-8.06L183.77-8.06L183.77-8.06Q183.77-6.38 184.79-5.32L184.79-5.32L184.79-5.32Q185.82-4.26 187.34-4.10L187.34-4.10L187.34-4.10Q186.58-1.52 183.81 0L183.81 0L183.81 0Q181.03 1.52 177.92 1.52L177.92 1.52L177.92 1.52Q174.80 1.52 172.71 0.34L172.71 0.34L172.71 0.34Q170.62-0.84 170.01-2.81L170.01-2.81L170.01-2.81Q168.80-0.91 166.21 0.30L166.21 0.30L166.21 0.30Q163.63 1.52 160.17 1.52L160.17 1.52L160.17 1.52Q156.71 1.52 153.90 0.61L153.90 0.61L153.90 0.61Q151.09-0.30 149.30-2.28ZM165.34-33.14L165.34-33.14L165.34-33.14Q164.46-31.77 163.70-29.45L163.70-29.45L163.70-29.45Q162.94-27.13 161.69-20.94L161.69-20.94L161.69-20.94Q160.44-14.74 160.44-10.34L160.44-10.34L160.44-10.34Q160.44-5.93 161.12-4.64L161.12-4.64L161.12-4.64Q161.80-3.34 163.02-3.34L163.02-3.34L163.02-3.34Q165.45-3.34 167.24-5.66L167.24-5.66L167.24-5.66Q169.02-7.98 169.71-12.08L169.71-12.08L173.74-34.35L173.74-34.35Q172.14-35.72 170.28-35.72L170.28-35.72L170.28-35.72Q168.42-35.72 167.31-35.11L167.31-35.11L167.31-35.11Q166.21-34.50 165.34-33.14ZM225.87 1.52L225.87 1.52L225.87 1.52Q216.68 1.52 216.68-5.62L216.68-5.62L216.68-5.62Q216.75-7.60 217.36-10.94L217.36-10.94L218.73-17.94L218.73-17.94Q220.78-27.82 220.78-30.02L220.78-30.02L220.78-30.02Q220.78-34.43 218.20-34.43L218.20-34.43L218.20-34.43Q213.86-34.43 211.58-23.10L211.58-23.10L207.10 0L191.82 1.52L199.73-38.84L212.19-40.28L210.98-32.83L210.98-32.83Q214.55-40.28 225.49-40.28L225.49-40.28L225.49-40.28Q230.81-40.28 233.05-38.04L233.05-38.04L233.05-38.04Q235.30-35.80 235.30-30.78L235.30-30.78L235.30-30.78Q235.30-26.07 232.86-15.05L232.86-15.05L232.86-15.05Q231.72-10.11 231.72-8.25L231.72-8.25L231.72-8.25Q231.72-6.38 232.75-5.32L232.75-5.32L232.75-5.32Q233.78-4.26 235.30-4.10L235.30-4.10L235.30-4.10Q234.54-1.52 231.91 0L231.91 0L231.91 0Q229.29 1.52 225.87 1.52Z" fill="#fefefe"></path></g></g><style>text {
  font-size: 64px;
  font-family: Arial Black;
  dominant-baseline: central;
  text-anchor: middle;
}</style></svg>